<?xml version="1.0" encoding="UTF-8"?>
<svg id="g-layers_shrinkartboard-Artboard_1-layer1-img" data-name="Layer 1" xmlns="http://www.w3.org/2000/svg" baseProfile="tiny" version="1.2" viewBox="0 0 756.764 613.453">
  <g id="layer1">
    <rect x="646.116" y=".636" width="110.353" height="223.625" fill="#fff" stroke-width="0"/>
    <path d="M660.226,206.77l1.174,1.824.128,1.925-11.325,2.821,8.927-6.741,1.095.171ZM736.965,8.475l3.276,1.361,1.207,3.363h1.493s-.896-2.225-.896-2.225l1.793,2.223,3.22-.531,3.035,1.259.653.866-7.474,13.932-1.817-1.903.003,4.17-11.643,22.809.609,27.541,4.273,13.235-.053,1.001-6.004,7.191-5.98,6.683.014.459-.313.376.399,2.226.175,5.317-9.002,12.429-11.312,14.555-1.984,3.794-3.104,4.283-.085,1.818-.214.41-.3,5.293-1.497.278,1.475,5.489-.376,8.02-2.74,9.717-1.305,2.778-13.435,2.29-3.383.4-.372.24-.227.039-3.294,1.67v.558s-1.839,1.182-1.839,1.182l-.259-.069v.236l-.684.44-1.712.995v.161l-4.755,3.489-.715-.153-5.609-6.011,5.398-13.093.299-1.393-.136-.039.211-1.835.225-.077.903-7.243-.282-.053.254-2.21.329.035.3-2.786-.307-.064.056-.493h.252l.19-3.853.423-3.702.287.034.6-2.507-.583-.181.101-.883.483-.049-.436-.355.439-3.823,3.382-10.397.214-.462.299-1.114.309-.527.29-.03,1.497-2.227-.353-.188.543-.926h.409l-.281-.219.423-.723.456.107-.373-.248.242-.413,1.029.383-.811-.756.699-1.193h1.309l-.959-.595.207-.353,1.051.392-.794-.832.469-.8,1.222.518-.945-.991.607-1.038.339.08-.219-.284.549-.936.268.107,1.198-1.67-.403-.251.768-1.31.532-.11-.357-.19.11-.187.247.099,2.992-4.732,1.497-2.226,2.992-6.123-.137.025,22.415-38.287,1.345-1.252-.365-.424,3.37-5.762.879-.49,1.286-3.209,1.701-2.911,7.167-20.58,1.222-2.354,2.66-4.599,1.668-3.732,7.882-15.176ZM737.903,89.686l9.814,7.82.308.929-11.606,13.517-6.17-2.983,2.758-6.949.416-.645,4.188.276-2.095-2.226.861-5.894,1.527-3.847Z" fill="none" stroke="#494949" stroke-width=".7"/>
    <path d="M660.226,206.77l1.174,1.824.128,1.925-11.325,2.821,8.927-6.741,1.095.171ZM736.965,8.475l3.276,1.361,1.207,3.363h1.493s-.896-2.225-.896-2.225l1.793,2.223,3.22-.531,3.035,1.259.653.866-7.474,13.932-1.817-1.903.003,4.17-11.643,22.809.609,27.541,4.273,13.235-.053,1.001-6.004,7.191-5.98,6.683.014.459-.313.376.399,2.226.175,5.317-9.002,12.429-11.312,14.555-1.984,3.794-3.104,4.283-.085,1.818-.214.41-.3,5.293-1.497.278,1.475,5.489-.376,8.02-2.74,9.717-1.305,2.778-13.435,2.29-3.383.4-.372.24-.227.039-3.294,1.67v.558s-1.839,1.182-1.839,1.182l-.259-.069v.236l-.684.44-1.712.995v.161l-4.755,3.489-.715-.153-5.609-6.011,5.398-13.093.299-1.393-.136-.039.211-1.835.225-.077.903-7.243-.282-.053.254-2.21.329.035.3-2.786-.307-.064.056-.493h.252l.19-3.853.423-3.702.287.034.6-2.507-.583-.181.101-.883.483-.049-.436-.355.439-3.823,3.382-10.397.214-.462.299-1.114.309-.527.29-.03,1.497-2.227-.353-.188.543-.926h.409l-.281-.219.423-.723.456.107-.373-.248.242-.413,1.029.383-.811-.756.699-1.193h1.309l-.959-.595.207-.353,1.051.392-.794-.832.469-.8,1.222.518-.945-.991.607-1.038.339.08-.219-.284.549-.936.268.107,1.198-1.67-.403-.251.768-1.31.532-.11-.357-.19.11-.187.247.099,2.992-4.732,1.497-2.226,2.992-6.123-.137.025,22.415-38.287,1.345-1.252-.365-.424,3.37-5.762.879-.49,1.286-3.209,1.701-2.911,7.167-20.58,1.222-2.354,2.66-4.599,1.668-3.732,7.882-15.176ZM737.903,89.686l9.814,7.82.308.929-11.606,13.517-6.17-2.983,2.758-6.949.416-.645,4.188.276-2.095-2.226.861-5.894,1.527-3.847Z" fill="#fff" stroke-width="0"/>
    <path d="M685.403,67.294h8.512s2.838.001,2.838.001h17.025s2.838-.001,2.838-.001h5.675s2.837-.002,2.837-.002h5.675s2.837-.002,2.837-.002h2.838s2.837-.002,2.837-.002h2.838s0,2.11,0,2.11v2.111s.003,2.111.003,2.111v2.111s.003,2.113.003,2.113v2.111s.003,2.111.003,2.111v2.113s.003,2.111.003,2.111v2.111s.003,2.113.003,2.113v2.113s.003,2.111.003,2.111v4.225s.003,2.113.003,2.113v2.111s.003,2.113.003,2.113v2.113s.003,2.113.003,2.113h-2.84s-2.838.002-2.838.002h-2.84s-2.84.002-2.84.002h-2.84s-2.838.002-2.838.002h-5.679s-2.84.001-2.84.001h-2.838s-2.84.001-2.84.001h-8.518s-2.84.001-2.84.001h-2.84s-2.838-.001-2.838-.001h-8.519s.001-2.114.001-2.114v-6.338s.001-2.111.001-2.111v-2.113s.001-2.113.001-2.113v-4.224s.001-2.113.001-2.113v-2.111s.001-2.113.001-2.113v-4.223s.001-2.113.001-2.113v-4.223s.001-2.111.001-2.111v-2.111s.001-2.111.001-2.111Z" fill="none" stroke="#d00" stroke-width="2"/>
    <path d="M304.684,199.291" fill="none" stroke="#850000" stroke-miterlimit="10"/>
    <rect x="666.967" y="578.948" width="42.656" height="25" fill="#fff" fill-opacity=".75" stroke-width="0"/>
    <path d="M666.967,604.948h42.656" fill="none" stroke="#333" stroke-width="2"/>
    <rect x="719.623" y="578.151" width="8.562" height="28.797" fill="none" stroke-width="0"/>
    <path d="M723.905,595.151h0l3.2,11.8-3.2-2-3.2,2,3.2-11.8Z" fill="#000" stroke="#000"/>
    <g>
      <line x1="329.282" y1="199.566" x2="390.93" y2="124.463" fill="none" stroke="#c72127" stroke-miterlimit="10" stroke-width="3"/>
      <path d="M315.498,216.36c9.418-5.495,22.469-11.193,32.757-12.921l-17.163-6.076-9.302-15.647c.31,10.427-2.735,24.338-6.292,34.645Z" fill="#c72127" stroke-width="0"/>
    </g>
    <line x1="337.097" y1="245.439" x2="210.216" y2="245.439" fill="none" stroke="#c72127" stroke-miterlimit="10" stroke-width="3"/>
  </g>
<style>
#g-layers_shrinkartboard-Artboard_1-layer1-img rect, #g-layers_shrinkartboard-Artboard_1-layer1-img circle, #g-layers_shrinkartboard-Artboard_1-layer1-img path, #g-layers_shrinkartboard-Artboard_1-layer1-img line, #g-layers_shrinkartboard-Artboard_1-layer1-img polyline, #g-layers_shrinkartboard-Artboard_1-layer1-img polygon { vector-effect: non-scaling-stroke; }
</style>
</svg>
