<svg xmlns="http://www.w3.org/2000/svg" xmlns:xlink="http://www.w3.org/1999/xlink" id="exportSvg" width="614" height="301"><defs/><rect width="614" height="301" transform="translate(0, 0)" fill="rgb(255, 255, 255)" style="fill: rgb(255, 255, 255);"/><g><g id="__svelte-dw-svg" clip-path="url(#rect-mask-MjatM1Md0KD-8sJJL6B1U)"><clipPath id="rect-mask-MjatM1Md0KD-8sJJL6B1U"><rect x="0" y="0" width="614" height="301"/></clipPath><g id="container-svg container-header-svg datawrapper-nNvL3-5c5xuk-svg"><text transform="translate(0, 0)"><tspan fill="rgb(0,0,0)" x="0" y="22" style="font-family: Roboto; font-weight: 700; font-stretch: 100%; font-size: 22px;">Higher Poverty in Neglected Areas of Manhattan</tspan></text><text transform="translate(0, 35)"><tspan fill="rgb(24,24,24)" x="0" y="14" style="font-family: Roboto; font-weight: 400; font-stretch: 100%; font-size: 14px;">Half of 'neglected areas' are where more than 20% of people live below the poverty line.</tspan></text></g><g id="chart-svg"><rect width="14" height="14" transform="translate(0, 77)" fill="rgb(255,0,0)" style="fill: rgb(255, 0, 0);"/><text transform="translate(19, 77)"><tspan fill="rgb(24,24,24)" x="0" y="12" style="font-family: Roboto; font-weight: 400; font-stretch: 100%; font-size: 12px;">&gt; 20% Below Poverty</tspan></text><rect width="14" height="14" transform="translate(0, 93)" fill="rgb(196,196,196)" style="fill: rgb(196, 196, 196);"/><text transform="translate(19, 93)"><tspan fill="rgb(24,24,24)" x="0" y="12" style="font-family: Roboto; font-weight: 400; font-stretch: 100%; font-size: 12px;">5% - 20% Below Poverty</tspan></text><rect width="14" height="14" transform="translate(0, 109)" fill="rgb(1,78,118)" style="fill: rgb(1, 78, 118);"/><text transform="translate(19, 109)"><tspan fill="rgb(24,24,24)" x="0" y="12" style="font-family: Roboto; font-weight: 400; font-stretch: 100%; font-size: 12px;">&lt; 5% Below Poverty</tspan></text><g id="group-svg" clip-path="url(#rect-mask-fimd_Yq0gLUq3GRkVnJVZ)" transform="translate(165.39063, 72)"><clipPath id="rect-mask-fimd_Yq0gLUq3GRkVnJVZ"><rect x="0" y="0" width="125.546875" height="125.546875"/></clipPath><g id="pie-svg" transform="translate(62.78, 62.78)"><g id="slice-svg"><path d="M0,-62.78A62.78,62.78,0,0,1,59.643,19.598L37.575,12.347A39.551,39.551,0,0,0,0,-39.551Z" stroke="rgb(255,255,255)" style="fill: rgb(255, 0, 0); stroke-width: 0.5; stroke-linejoin: bevel; stroke-linecap: butt; stroke: rgb(255, 255, 255);"/></g><g id="slice-svg"><path d="M59.643,19.598A62.78,62.78,0,1,1,-47.669,-40.853L-30.032,-25.737A39.551,39.551,0,1,0,37.575,12.347Z" stroke="rgb(255,255,255)" style="fill: rgb(196, 196, 196); stroke-width: 0.5; stroke-linejoin: bevel; stroke-linecap: butt; stroke: rgb(255, 255, 255);"/></g><g id="slice-svg"><path d="M-47.669,-40.853A62.78,62.78,0,0,1,0,-62.78L0,-39.551A39.551,39.551,0,0,0,-30.032,-25.737Z" stroke="rgb(255,255,255)" style="fill: rgb(1, 78, 118); stroke-width: 0.5; stroke-linejoin: bevel; stroke-linecap: butt; stroke: rgb(255, 255, 255);"/></g></g></g><text transform="translate(269.6065368652344, 97.77421569824219)" style="text-anchor: middle;"><tspan fill="rgb(255,255,255)" x="0" y="12" style="font-family: Roboto; font-weight: 400; font-stretch: 100%; font-size: 12px;">30%</tspan></text><text transform="translate(203.0504913330078, 172.35914611816406)" style="text-anchor: middle;"><tspan fill="rgb(0,0,0)" x="0" y="12" style="font-family: Roboto; font-weight: 400; font-stretch: 100%; font-size: 12px;">56%</tspan></text><text transform="translate(206.7810821533203, 81.29612731933594)" style="text-anchor: middle;"><tspan fill="rgb(255,255,255)" x="0" y="12" style="font-family: Roboto; font-weight: 400; font-stretch: 100%; font-size: 12px;">14%</tspan></text><text transform="translate(228.1640625, 207.546875)" style="text-anchor: middle;"><tspan fill="rgb(24,24,24)" x="0" y="14" style="font-family: Roboto; font-weight: 400; font-stretch: 100%; font-size: 14px;">Entire Area</tspan></text><g id="group-svg" clip-path="url(#rect-mask-CTH33AsDYt0hOraqjHBDn)" transform="translate(321.71875, 72)"><clipPath id="rect-mask-CTH33AsDYt0hOraqjHBDn"><rect x="0" y="0" width="125.546875" height="125.546875"/></clipPath><g id="pie-svg" transform="translate(62.78, 62.78)"><g id="slice-svg"><path d="M0,-62.78A62.78,62.78,0,0,1,61.995,-9.897L39.057,-6.235A39.551,39.551,0,0,0,0,-39.551Z" stroke="rgb(255,255,255)" style="fill: rgb(255, 0, 0); stroke-width: 0.5; stroke-linejoin: bevel; stroke-linecap: butt; stroke: rgb(255, 255, 255);"/></g><g id="slice-svg"><path d="M61.995,-9.897A62.78,62.78,0,1,1,-52.976,-33.688L-33.375,-21.223A39.551,39.551,0,1,0,39.057,-6.235Z" stroke="rgb(255,255,255)" style="fill: rgb(196, 196, 196); stroke-width: 0.5; stroke-linejoin: bevel; stroke-linecap: butt; stroke: rgb(255, 255, 255);"/></g><g id="slice-svg"><path d="M-52.976,-33.688A62.78,62.78,0,0,1,0,-62.78L0,-39.551A39.551,39.551,0,0,0,-33.375,-21.223Z" stroke="rgb(255,255,255)" style="fill: rgb(1, 78, 118); stroke-width: 0.5; stroke-linejoin: bevel; stroke-linecap: butt; stroke: rgb(255, 255, 255);"/></g></g></g><text transform="translate(417.6963806152344, 88.85279846191406)" style="text-anchor: middle;"><tspan fill="rgb(255,255,255)" x="0" y="12" style="font-family: Roboto; font-weight: 400; font-stretch: 100%; font-size: 12px;">22%</tspan></text><text transform="translate(374.1230163574219, 177.88424682617188)" style="text-anchor: middle;"><tspan fill="rgb(0,0,0)" x="0" y="12" style="font-family: Roboto; font-weight: 400; font-stretch: 100%; font-size: 12px;">62%</tspan></text><text transform="translate(359.8623352050781, 82.93180847167969)" style="text-anchor: middle;"><tspan fill="rgb(255,255,255)" x="0" y="12" style="font-family: Roboto; font-weight: 400; font-stretch: 100%; font-size: 12px;">16%</tspan></text><text transform="translate(384.4921875, 207.546875)" style="text-anchor: middle;"><tspan fill="rgb(24,24,24)" x="0" y="14" style="font-family: Roboto; font-weight: 400; font-stretch: 100%; font-size: 14px;">Areas Accessible</tspan><tspan fill="rgb(24,24,24)" x="0" y="30" style="font-family: Roboto; font-weight: 400; font-stretch: 100%; font-size: 14px;">with Elevator</tspan><tspan fill="rgb(24,24,24)" x="0" y="46" style="font-family: Roboto; font-weight: 400; font-stretch: 100%; font-size: 14px;">Stations</tspan></text><g id="group-svg" clip-path="url(#rect-mask-LABHgX5Yxb6Zp7PgDebb5)" transform="translate(478.04688, 72)"><clipPath id="rect-mask-LABHgX5Yxb6Zp7PgDebb5"><rect x="0" y="0" width="125.546875" height="125.546875"/></clipPath><g id="pie-svg" transform="translate(62.78, 62.78)"><g id="slice-svg"><path d="M0,-62.78A62.78,62.78,0,0,1,10.565,61.885L6.656,38.987A39.551,39.551,0,0,0,0,-39.551Z" stroke="rgb(255,255,255)" style="fill: rgb(255, 0, 0); stroke-width: 0.5; stroke-linejoin: bevel; stroke-linecap: butt; stroke: rgb(255, 255, 255);"/></g><g id="slice-svg"><path d="M10.565,61.885A62.78,62.78,0,0,1,-24.89,-57.635L-15.681,-36.31A39.551,39.551,0,0,0,6.656,38.987Z" stroke="rgb(255,255,255)" style="fill: rgb(196, 196, 196); stroke-width: 0.5; stroke-linejoin: bevel; stroke-linecap: butt; stroke: rgb(255, 255, 255);"/></g><g id="slice-svg"><path d="M-24.89,-57.635A62.78,62.78,0,0,1,0,-62.78L0,-39.551A39.551,39.551,0,0,0,-15.681,-36.31Z" stroke="rgb(255,255,255)" style="fill: rgb(1, 78, 118); stroke-width: 0.5; stroke-linejoin: bevel; stroke-linecap: butt; stroke: rgb(255, 255, 255);"/></g></g></g><text transform="translate(591.802001953125, 123.45918273925781)" style="text-anchor: middle;"><tspan fill="rgb(255,255,255)" x="0" y="12" style="font-family: Roboto; font-weight: 400; font-stretch: 100%; font-size: 12px;">47%</tspan></text><text transform="translate(491.76617431640625, 142.3313446044922)" style="text-anchor: middle;"><tspan fill="rgb(0,0,0)" x="0" y="12" style="font-family: Roboto; font-weight: 400; font-stretch: 100%; font-size: 12px;">46%</tspan></text><text transform="translate(530.4699096679688, 77.67349243164062)" style="text-anchor: middle;"><tspan fill="rgb(255,255,255)" x="0" y="12" style="font-family: Roboto; font-weight: 400; font-stretch: 100%; font-size: 12px;">6%</tspan></text><text transform="translate(540.828125, 207.546875)" style="text-anchor: middle;"><tspan fill="rgb(24,24,24)" x="0" y="14" style="font-family: Roboto; font-weight: 400; font-stretch: 100%; font-size: 14px;">Neglected Area</tspan></text></g><g id="container-svg container-footer-svg datawrapper-nNvL3-1o125dc-svg"><text transform="translate(0, 288)"><tspan fill="rgb(136,136,136)" x="0" y="11" style="font-family: Roboto; font-weight: 400; font-stretch: 100%; font-size: 11px;">Source:</tspan><tspan fill="rgb(136,136,136)" dx="2.734375" style="font-family: Roboto; font-weight: 400; font-stretch: 100%; font-size: 11px;">US Census Track</tspan><tspan fill="rgb(136,136,136)" dx="2.739" style="font-family: Roboto; font-weight: 400; font-stretch: 100%; font-size: 11px;">•</tspan><tspan fill="rgb(136,136,136)" dx="2.739" style="font-family: Roboto; font-weight: 400; font-stretch: 100%; font-size: 11px;">Created with</tspan><tspan fill="rgb(136,136,136)" dx="2.734375" style="font-family: Roboto; font-weight: 400; font-stretch: 100%; font-size: 11px;">Datawrapper</tspan></text></g></g></g></svg>