<?xml version="1.0" encoding="UTF-8"?>
<svg id="g-layers-Artboard_1-layer2-img" data-name="Layer 1" xmlns="http://www.w3.org/2000/svg" xmlns:xlink="http://www.w3.org/1999/xlink" baseProfile="tiny" version="1.2" viewBox="0 0 756.764 613.453">
  <g id="layer2">
    <path d="M364.223,283c1.373,0,2.553.347,3.54,1.04s1.473,1.54,1.46,2.54v10c0,.96-.467,1.78-1.4,2.46s-2.067,1.047-3.4,1.1l2.38,2.24c.107.12.133.253.08.4s-.167.22-.34.22h-11.78c-.16,0-.273-.073-.34-.22s-.033-.28.1-.4l2.38-2.24c-1.347-.04-2.487-.407-3.42-1.1-.933-.693-1.4-1.513-1.4-2.46v-10c0-1,.487-1.847,1.46-2.54.973-.693,2.153-1.04,3.54-1.04h7.14ZM355.303,297.64c.493,0,.913-.173,1.26-.52.347-.347.52-.767.52-1.26s-.173-.913-.52-1.26c-.347-.347-.767-.52-1.26-.52s-.913.173-1.26.52c-.347.347-.527.767-.54,1.26s.167.913.54,1.26c.373.347.793.52,1.26.52ZM359.943,291.58v-5.72h-6.08v5.72h6.08ZM366.003,297.64c.493,0,.92-.173,1.28-.52.36-.347.533-.767.52-1.26s-.187-.913-.52-1.26c-.333-.347-.76-.52-1.28-.52s-.94.173-1.26.52c-.32.347-.493.767-.52,1.26s.147.913.52,1.26c.373.347.793.52,1.26.52ZM367.803,291.58v-5.72h-6.44v5.72h6.44Z" fill="#000" stroke-width="0"/>
    <g>
      <path d="M287.304,264.253c-.091.03-.213.185-.103.239l.293-.176-.19-.063Z" fill="#a62020" stroke-width="0"/>
      <path d="M287.426,265.232c.21-.018.518-.111.668-.39-.317.134-.248.016-.617.185-.11-.054-.069-.217.03-.29-.089.031-.076-.177-.268-.074-.074.287.056.43.347.418-.021.082-.111.115-.161.151Z" fill="#a62020" stroke-width="0"/>
      <path d="M296.08,272.677l-.042-.072c.006.029.021.052.042.072Z" fill="#a62020" stroke-width="0"/>
      <path d="M302.288,276.174c-.053-.015-.087.007-.102.033.055,0,.102-.002.102-.033Z" fill="#a62020" stroke-width="0"/>
      <path d="M303.265,276.997c-.022-.018-.039-.033-.058-.049.014.039.032.066.058.049Z" fill="#a62020" stroke-width="0"/>
      <path d="M296.08,272.677l.107.188c.068-.085-.041-.119-.107-.188Z" fill="#a62020" stroke-width="0"/>
      <path d="M289.103,265.727c-.039-.015-.084-.014-.133-.005.033.011.064.023.093.039l.04-.034Z" fill="#a62020" stroke-width="0"/>
      <path d="M293.311,271.164l-.048-.033c-.036.021-.075.049-.117.082l.165-.049Z" fill="#a62020" stroke-width="0"/>
      <path d="M291.337,269.761c.036.043.223-.167.315-.251-.095.073-.161.091-.212.079-.034.042-.067.096-.103.172Z" fill="#a62020" stroke-width="0"/>
      <path d="M288.724,266.93l-.075-.017c.021.005.051.012.075.017Z" fill="#a62020" stroke-width="0"/>
      <path d="M294.708,272.19c-.02.037-.033.073-.037.096.019-.029.03-.062.037-.096Z" fill="#a62020" stroke-width="0"/>
      <path d="M353.876,300.841c-.011.017-.017.028-.026.042.027-.017.041-.031.026-.042Z" fill="#a62020" stroke-width="0"/>
      <polygon points="355.479 303.49 355.439 303.483 355.348 303.612 355.479 303.49" fill="#a62020" stroke-width="0"/>
      <path d="M305.235,278.151s-.008-.009-.008-.009c-.067.009-.033.016.008.009Z" fill="#a62020" stroke-width="0"/>
      <path d="M322.757,287.555c-.232-.254.387-.318.036-.601.033.111-.329.434-.036.601Z" fill="#a62020" stroke-width="0"/>
      <path d="M289.122,265.795c.025.019.051.039.072.064-.026-.037-.048-.056-.072-.064Z" fill="#a62020" stroke-width="0"/>
      <path d="M322.794,286.953v-.002s-.036-.027-.036-.027c.015.012.023.019.036.029Z" fill="#a62020" stroke-width="0"/>
      <path d="M310.038,279.688c.009-.05.005-.092,0-.132-.009.027-.012.064,0,.132Z" fill="#a62020" stroke-width="0"/>
      <path d="M306.666,278.06l.077.066c-.027-.036-.053-.054-.077-.066Z" fill="#a62020" stroke-width="0"/>
      <path d="M311.899,280.104c.033.041.03.082.104.081.001-.016,0-.027-.001-.04-.039.022-.074.023-.103-.041Z" fill="#a62020" stroke-width="0"/>
      <path d="M313.515,281.119c.005-.023.005-.044.007-.067l-.056-.025.049.092Z" fill="#a62020" stroke-width="0"/>
      <path d="M348.541,297.655c-.004.091-.027.179-.054.264.079-.186.372-.087.054-.264Z" fill="#a62020" stroke-width="0"/>
      <path d="M288.996,265.844c.057-.044.093-.058.126-.048l-.059-.034c-.033.027-.06.055-.067.083Z" fill="#a62020" stroke-width="0"/>
      <path d="M313.012,278.183l.292.211c-.074-.073-.18-.148-.292-.211Z" fill="#a62020" stroke-width="0"/>
      <path d="M336.095,289.896l.081.011c-.021-.021-.048-.028-.081-.011Z" fill="#a62020" stroke-width="0"/>
      <path d="M314.238,278.914c-.001.12.022.207.059.278.025-.01.049-.014.076-.035l-.134-.243Z" fill="#a62020" stroke-width="0"/>
      <path d="M348.486,297.922v-.003s0,.003,0,.003Z" fill="#a62020" stroke-width="0"/>
      <path d="M350.653,298.493c-.258-.171-.315.229-.483.374-.369-.107,0-.321-.006-.548-.247-.04-.577.154-.716.05.021-.058.005-.095.079-.139-.363.119-.621-.372-1.058-.211,0-.039.007-.071.017-.097-.059.181-.153.344-.232.453-.121-.068-.342.061-.258-.171.068.051.126-.028.2-.07l-.179.011c.073-.363.232.004.368-.214-.3-.055-.733.013-.865-.186.142-.312.491.173.406-.237l.216.288c.067-.59.153.14.258-.471-.322-.318-.511-.116-.832-.435-.184.107-.12.254-.305.361-.711-.046.036-.986-.595-.847-.221.128-.489.468-.646.101l.299-.266c-.343-.26-.5.338-.743-.119.148-.085.353.071.322-.002-.085-.411-.29.075-.479-.043l.142-.313c-.415-.197-.971-.256-1.431-.471.077-.071.207-.115.162-.266-.63-.194-1.13-.758-1.543-1.255l-.355.124c-.045-.032-.015-.166.065-.183-.144-.221-.109.151-.268.188-.126-.055-.063-.239.057-.267-.49-.014-1.304-.185-1.514-.688l.12-.028c-.23-.285-.651.302-.778-.101l.08-.011c-.57-.507-1.417-.721-1.668-1.402-.317.3-.531-.555-.885-.082-.209-.476-.048-.5-.457-.988-.122-.109-.4.184-.602.13l.16-.264-.401.13.074-.389-.201-.033c.054.055.061.202.004.271-.322-.037-.49-.561-.413-.698l-.725-.147c.079-.097.2-.071.319-.09-.481.07.117-.31-.325-.247.001.084-.118.143-.158.191-.044-.248-.372-.455-.659-.539l.159-.152c-.415-.321-.994-.49-1.508-.791.136.192-.093.486-.26.43l.102-.317c-.197.119.095.197-.226.296-.172-.142.054-.396.218-.424l-.29-.036c.034-.093.115-.106.19-.206-.195.122-.256-.515-.567-.285l.032-.093c-.536-.287-.835-.312-1.292-.512-.129.25-.279.113-.506.259-.291-.229-.582-.594-1.013-.727-.341.021-.168.191-.354.299.066-.248-.367-.368-.088-.468-.524-.13-.678-.17-1.389-.13.048.119.116.182.054.257-.127.013-.244-.168-.201-.284l.038-.018c-.413.103-.802-.159-1.214-.375-.408-.224-.82-.392-1.13-.139l.035-.025-.621.261c-.275-.047.169-.191-.034-.351-.656.42-1.012-.063-1.52.216-.373-.752-1.359.014-1.749-.544v.18c-.146.155-.129-.119-.201-.177-.014.138.094.183.006.263-.515.02-.989-.196-1.332-.511-.347-.31-.567-.709-.837-1.123-.2-.3-.841.447-.833-.223l.349-.091c-.815-.381-1.018-1.451-1.92-1.991.096-.005.175-.067.235.008.055-.321-.519-.597-.661-.456-.091-.127.102-.149.106-.289-.049-.266-.599-.146-.519-.399.011-.042.096-.018.138-.005-.177-.013-.47-.451-.547-.149-.207-.339-.627-.338-.772-.633-.324.142-.441-.467-.724-.128.265-.377-.359-.639-.657-.556.132-.085-.106-.219.061-.344-.235-.112-.483-.144-.546.085-.192-.7-1.024-.002-.983-.735-.784-.071-1.47-.15-2.115-.266.173-.419.69.201.829-.25-.652-.045-1.111.208-1.647-.093-.128-.11.147-.156.223-.211-.637-.023-1.096-.416-1.677-.358.015-.039.084-.064.146-.079-.103-.02-.208-.142-.264.055l.115-.019c.061.336-.598.451-.669.591.362-.493-.443-.321.072-.922-.077.013-.19.074-.222.209-.082-.073-.084-.159.065-.27-.386-.023-.338.227-.654.105.036-.093.114-.105.187-.202-.227.121-.46.247-.696.063.038-.049.035-.134.113-.101-.464-.154-.969.167-1.401-.208.313-.337-.114-.203.006-.56l-.308-.013.035.213c-.23-.107-.545.053-.697-.147l.235-.065-.465-.125.19.237c-.315.073-.167.443-.437.212.078-.005-.231-.113-.26-.369h.001c-.164.054-.335.112-.468-.053.006-.129.212-.357.216-.442-.245.228-.577-.172-.863.055.081-.046.17-.221.172-.265l-.205.181c-.07-.126-.068-.169.018-.3-.296-.201-.109.475-.396.102.039-.003.042-.045.12-.048-.328-.288-.809-.218-1.092-.519.075-.387.342.08.373-.263-.518-.207-1.237-.145-1.664-.498l.067.087c-.327.423-.221-.43-.583-.35.078,0,.224-.211.179-.168-.28-.256-.721-.266-1.288-.423l.131-.079c-.123-.218-.454-.361-.622-.538-.131.077-.233-.016-.271.196-.186-1.048-1.402-.414-1.569-1.326.064.043.219.007.169-.029l-.524-.211c-.098.214-.021.155-.029.369-.136.072-.327.069-.44-.01.294.018.213-.304.201-.47-.027.068-.102.11-.136.174.008-.505-.311.348-.468-.111l.088-.086c-.156-.038-.361.01-.469-.113.106-.254.201-.006.34-.178-.188-.12-.659.143-.663-.19.122-.003.233.078.354.075.011-.382-.057-.333-.159-.47l.009.015-.211-.345.024.127c-.646.379-.525-.249-1.106-.124.559-.112.203-.158.414-.378-.023-.125-.079-.288.007-.329-.294.083-.106-.336-.525-.217.053-.083-.14-.128.047-.292-.225-.087-.066.165-.159.248-.486.026-.386-.834-1.062-.828-.455-.149-.735.043-1.156-.108,0-.208.323-.189.323-.189-.074-.253-.211-.351-.442-.411.089-.034.105-.117.133-.241-.141-.096-.324.184-.39-.073.102-.054.257-.147.39-.172-.206-.069-.474-.07-.686-.146.077-.16.268-.102.397-.134-.223-.098-.541-.297-.778-.156l.04.174c-.069-.05.129-.197.208-.189.286-.012.144.263.084.344l-.151-.055c-.283.518.498.337.691.562l-.373.221.458-.046c-.026.124-.149.326-.3.271.019.298.238.02.219.315-.009.04-.029.049-.054.048l.24.047c-.089.038-.17.242-.227.112.125.429.664.168.563.498l-.041-.002c.486.239.239-.196.767-.21l-.291.745.237-.2c.034.043.102.128.008.209.289-.032.059-.123.276-.2.021.379.632.354.369.768.218-.12-.078-.297.237-.245-.268.455.3.137.338.467-.226.166-.314-.085-.277.25.397-.268.303.364.517.42.232-.282.435.152.778.257-.091.085.39.535.566.829l-.043.044c.266-.262.482-.01.721.06-.135.174-.22.22-.382.227l.184.126c.111-.066.204-.077.346-.03l-.203.193c.253.157.673.074.882.442.16-.201.153-.76.576-.678-.065.123-.185.328-.303.317.039.004.166-.029.191.058l-.263.106c.087.179.184-.112.287-.019-.112.163.007.173-.096.293-.04-.003-.056-.134-.143-.098.111.115.204.315.174.475.05-.101.146-.222.256-.181.255.149-.045.254.044.434.135-.076.216.147.379-.099.071.049.011.173-.004.259.197-.024.628.345.647-.01l-.022-.038c.01,0,.017.001.028.002h-.001s.001,0,.001,0c.579.009.792.692,1.291.826l-.051.085c.313.05.605.272.891.192.075.045.091.259.001.344.236.043.311-.043.521.256-.283.043-.004.171-.266,0,.218.215.204.387.61.299-.214.172.047.387.206.387l-.098-.259c.156.043.267.128.383.209l-.221.261c.364.634,1.282-.12,1.4.687.246-.141-.226-.288.022-.472.23.158.289.713.368.751.27.33.529-.289.837-.005.003-.131.09-.435.406-.418.234.15.11.591-.09.607-.065-.018-.08-.065-.061-.1-.1.003-.23.003-.181.164l.082-.094c.077.166.435.308.274.45.24-.019.161-.142.042-.261.26.3.511.228.804.481-.029-.084-.024-.234.029-.209.442.343.306-.118.663-.029.124.245-.231.373.167.369.163.198-.072.31-.192.366.398-.088.53.377.698.485l-.201.025c.12-.012.202.018.285.05l-.011-.257c.083.075.166.106.129.198.156-.108.063-.397.337-.523.088.161.439.024.376.336-.373-.251-.064.314-.429.233.08-.01.162.021.246.097.003.038-.036.056-.07.063.299.41.304-.268.707-.111-.111.148-.018.353.062.34-.163-.061.02-.306.215-.383.215.221.317.001.447.064l-.134-.115c.111-.15.233-.082.431-.074-.029.136-.195.034-.15.114.3-.227.349.46.694.356.09.157-.095.32-.009.435.386-.112.257.345.642.276-.015-.257-.051-.208.254-.349l-.588-.025.455-.21c-.16-.059-.389.024-.473-.047.227-.128.191-.078.178-.292.105.414.507-.046.683.271l-.203.555c.289.382.774-.047,1.207.276l-.12-.154c.149-.196.311.083.501.056-.087.178-.017.283.003.423.049-.141.339.152.534-.191l.108.328c.328.262.66-.322.995-.086-.202.14-.102.342-.405.368.119.055.203.144.267.021.01.145.446-.075.465.149.089-.05.203-.223.325-.135-.005.043-.048.085-.048.085.047-.085.269-.002.262-.255.048.721,1.009.572.98,1.214.258.118.565.281.759.447-.052.033-.067.072-.089.025.131.365.555-.27.698.175-.088.369-.273-.035-.271.141-.432.485.397.28.278.742l-.07-.026c-.045.292.504.234.678.548,0,0-.056.021-.08.057.409-.005.771.31,1.053.536-.27.064-.202-.048-.371.159.124.105.307-.283.551-.076-.052.165-.006.42-.204.615l-.198-.233c-.188.341.252.307.308.472l-.134.082c.354.344.647.09.989.476l.045-.122c.464-.087.022.324.425.297l-.185.359c.216.06.776.108,1.098.19-.303.171-.746.08-1.058.046.152.135.594.374.781.247-.087-.006-.226.026-.263-.066.378-.136.697-.129,1.029.018-.181.345.039.476.314.601.277.11.598.197.679.511.721-.143,1.323.308,2.081.285-.246-.604.218-.009.184-.623.168-.037.231-.026.246.014l.503.369c.119.178-.159.134-.144.272.364.048.155.26.392.423-.048-.219.125-.313.328-.229l-.286-.282c.502-.324.428.513.916.198l-.154.189c.253-.11.885.026,1.148-.436.036.074.075.244-.031.28.523.117,1.314-.349,1.685.063l-.078.135c.111-.02.249-.228.338-.045-.023.058-.081.132-.036.154.065-.033.344-.178.454-.048l-.165.124c.459.353.942-.116,1.438-.023-.166.407.186.708.355.869l-.033.053c.568.323,1.172.163,1.814.321.111.603,1.059.836,1.467,1.404-.042-.119.193-.284.314-.261.082.155.517-.039.284.291l-.042-.035c-.113.395.208.472.409.611l.315-.426c.136.992,1.576.655,1.507,1.424.201-.03.363.074.564.044l-.158.236c.326.289.488.433.974.658l-.199.114c.244.174.754-.491.997-.358l-.154.402c.446.272.697.867,1.338.817-.04.048-.118.143-.199.113.203.14.654.748.886.209-.195.323.437.318.765.327l-.185.213c.391-.175.449-.254.783-.16.048.073-.06.226-.111.11.145.263.314-.115.504.18l-.195.088c.217.162.25.069.486-.027.203-.004.397.332.297.567.112-.111.347-.206.443-.06-.032.092-.113.111-.153.12.282.401.741.082.859.479-.044.082-.051.132-.044.169-.3-.197-.537-.363-.504-.366-.136.218.085.41-.299.588.3-.04.861-.185,1.036.067-.002.028-.003.056-.016.095l-.04.009c.042.056.104.067.173.06.054.084.086.141.157.19-.085.198.221.274.338.359.139-.245.276-.106.249-.397.009.029-.041.014-.129-.027-.023-.005-.047-.015-.068-.008l.021-.016c-.083-.046-.191-.107-.314-.175.173-.06.338-.099.39.118.159-.114.327-.228.412-.277-.041.437.17.819.086,1.052.458.101.936.464,1.452.165.142.009.042.205.037.3-.09.006-.158-.046-.232-.003.285.019.658.35.905.07.179.309-.331.193.069.373l-.11.064c.411.954,1.678-.059,2.079,1.086-.031-.074-.047-.11-.026-.169.738.857,2.053.918,2.675,1.933.2.251.353.069.605.016l-.105.291.453-.127c.516.022.264,1.04,1.002.933l.046-.211c.152.141.611.242.458.422.037-.02.169-.144.18-.012l-.079.137.568.037c.268.303-.385.499.079.826.211.06.753-.071.742-.203-.068-.052-.132-.199-.053-.336l.207.033c.277-.376.656-.701.428-1.228l-.43.066.03-.248.243.135c-.02-.264-.205-.157-.368-.107.041-.116.047-.212.015-.284l-.51.205c.064-.175.315-.229.184-.43-.238.094-.094.423-.378.405-.021-.263.109-.385-.143-.33.042-.115.115-.159.206-.165-.216.034-.402-.18-.605-.016,0-.309-.507-.238-.259-.603-.1.062-.43.139-.568.074.514-.3-.463-.327-.101-.768-.425.293-.738-.214-1.185-.184.037-.021.111-.065.126-.027-.152-.142-.126-.294-.189-.44-.23.318-.547.225-.821.339-.011-.453.373-.309.5-.658-.158.276-.536.038-.605.307-.038-.3-.079-.184.01-.511-.289.397-.195-.024-.489.147-.106-.352.184-.427-.153-.462-.043-.204.278-.207.278-.207ZM344.079,295.37l.003-.005c.056.027.104.051.135.066-.029-.013-.068-.03-.138-.061ZM343.562,295.051c.057.049.134.099.217.149-.033.093-.106.166-.155.129.063-.037-.029-.161-.062-.279ZM343.616,297.384c-.103-.017-.101-.081-.081-.137.041.02.091.04.16.061l.028-.023c-.036.041-.072.078-.107.099Z" fill="#a62020" stroke-width="0"/>
      <path d="M343.958,297.163c.015.002.028-.004.044.004-.003-.032-.008-.059-.015-.084l-.076.057.046.024Z" fill="#a62020" stroke-width="0"/>
      <path d="M296.03,272.593l.008.012c-.003-.015-.006-.03-.002-.048,0,.016-.005.024-.006.036Z" fill="#a62020" stroke-width="0"/>
      <polygon points="336.742 290.138 336.705 290.199 336.783 290.175 336.742 290.138" fill="#a62020" stroke-width="0"/>
      <path d="M293.787,269.937c.009-.024.014-.052.007-.084-.009.016-.009.048-.007.084Z" fill="#a62020" stroke-width="0"/>
      <path d="M292.674,269.039l-.098-.204c.034.099.068.16.098.204Z" fill="#a62020" stroke-width="0"/>
      <path d="M291.896,268.253c-.042.03-.068.057-.092.081v.003s.092-.084.092-.084Z" fill="#a62020" stroke-width="0"/>
      <path d="M307.206,276.257c.014.003.029.005.044.002.111-.019.041-.021-.044-.002Z" fill="#a62020" stroke-width="0"/>
      <path d="M302.152,274.94c.071-.023.142-.045.207-.05-.075-.059-.138-.094-.207.05Z" fill="#a62020" stroke-width="0"/>
      <polygon points="312.98 278.16 312.977 278.165 313.012 278.183 312.98 278.16" fill="#a62020" stroke-width="0"/>
      <path d="M302.577,274.996c-.062-.088-.136-.112-.217-.106.061.049.13.115.217.106Z" fill="#a62020" stroke-width="0"/>
      <path d="M288.409,265.043l-.03-.045c-.012.014-.025.023-.036.028l.065.017Z" fill="#a62020" stroke-width="0"/>
      <path d="M288.344,265.026l-.065-.017c.019.019.037.034.065.017Z" fill="#a62020" stroke-width="0"/>
      <path d="M288.142,264.973l.137.035c-.03-.03-.061-.074-.137-.035Z" fill="#a62020" stroke-width="0"/>
      <path d="M289.379,266.125l.081-.064c-.021.009-.047.03-.081.064Z" fill="#a62020" stroke-width="0"/>
      <path d="M289.728,266.396c-.063-.087-.054-.334-.204-.385l-.064.051c.15-.065.079.396.269.334Z" fill="#a62020" stroke-width="0"/>
      <path d="M290.321,268.562l-.239-.304c-.019.125-.045.293-.195.203.161.554.08-.249.434.101Z" fill="#a62020" stroke-width="0"/>
      <path d="M291.134,269.423c-.192-.086-.096.125-.142.167.164.002.203.002.142-.167Z" fill="#a62020" stroke-width="0"/>
      <path d="M298.197,274.13l-.142.214c.157.043.049-.086.142-.214Z" fill="#a62020" stroke-width="0"/>
      <polygon points="300.235 273.72 300.175 273.512 300.004 273.688 300.235 273.72" fill="#a62020" stroke-width="0"/>
      <polygon points="300.266 275.776 300.188 275.777 300.465 275.813 300.266 275.776" fill="#a62020" stroke-width="0"/>
      <path d="M313.099,281.125l.146-.282c-.113-.01-.329.271-.146.282Z" fill="#a62020" stroke-width="0"/>
      <path d="M317.25,285.279c-.06.162.013.377.21.341-.107-.12-.127-.316-.21-.341Z" fill="#a62020" stroke-width="0"/>
      <polygon points="334.032 291.421 333.873 291.445 334.115 291.494 334.032 291.421" fill="#a62020" stroke-width="0"/>
    </g>
    <g>
      <path d="M423.042,304.721c.086-.029.23-.164.156-.19l-.286.174.13.016Z" fill="#a62020" stroke-width="0"/>
      <path d="M423.181,303.969c-.174.049-.429.217-.586.477.267-.196.185-.083.51-.296.08.024.014.161-.084.236.082-.043.012.126.194.017.141-.238.045-.346-.187-.276.031-.072.107-.118.154-.158Z" fill="#a62020" stroke-width="0"/>
      <path d="M415.912,301.919l.046.042c-.012-.023-.028-.036-.046-.042Z" fill="#a62020" stroke-width="0"/>
      <path d="M411.19,301.468c.036-.006.053-.038.056-.068-.034.02-.063.039-.056.068Z" fill="#a62020" stroke-width="0"/>
      <path d="M410.396,301.065c.018.009.031.016.047.024-.017-.031-.035-.049-.047-.024Z" fill="#a62020" stroke-width="0"/>
      <path d="M415.912,301.919l-.119-.112c-.016.107.059.084.119.112Z" fill="#a62020" stroke-width="0"/>
      <path d="M421.973,304.104c.026-.005.056-.025.09-.054-.023.005-.044.008-.064.009l-.026.045Z" fill="#a62020" stroke-width="0"/>
      <path d="M418.016,301.81l.038.003c.012-.037.027-.082.043-.132l-.081.129Z" fill="#a62020" stroke-width="0"/>
      <path d="M419.629,301.892c-.036-.016-.077.262-.102.383.032-.113.065-.165.099-.183.006-.053.008-.117.003-.2Z" fill="#a62020" stroke-width="0"/>
      <path d="M422.131,302.928l.059-.018c-.017.005-.038.012-.059.018Z" fill="#a62020" stroke-width="0"/>
      <path d="M416.875,301.659c0-.042-.003-.079-.007-.101-.003.035,0,.069.007.101Z" fill="#a62020" stroke-width="0"/>
      <path d="M372.096,302.898c.007.019.017.028.024.044.006-.035.003-.055-.024-.044Z" fill="#a62020" stroke-width="0"/>
      <polygon points="374.219 304.626 374.195 304.61 374.047 304.666 374.219 304.626" fill="#a62020" stroke-width="0"/>
      <path d="M408.924,300.656l.006.006c.04-.031.018-.026-.006-.006Z" fill="#a62020" stroke-width="0"/>
      <path d="M395.28,300.883c.163.245-.239.333.003.602-.026-.109.195-.447-.003-.602Z" fill="#a62020" stroke-width="0"/>
      <path d="M421.959,304.056c-.017-.005-.034-.01-.049-.021.018.019.033.025.049.021Z" fill="#a62020" stroke-width="0"/>
      <path d="M395.283,301.485v.002s.025.025.025.025c-.01-.011-.016-.018-.025-.028Z" fill="#a62020" stroke-width="0"/>
      <path d="M405.495,300.74c.006.05.019.087.033.124,0-.029-.008-.064-.033-.124Z" fill="#a62020" stroke-width="0"/>
      <path d="M408.034,301.195l-.062-.04c.024.026.044.036.062.04Z" fill="#a62020" stroke-width="0"/>
      <path d="M404.167,301.118c-.034-.022-.045-.06-.092-.023.004.014.008.024.014.034.017-.038.04-.056.079-.011Z" fill="#a62020" stroke-width="0"/>
      <path d="M402.792,301.115c.009.021.017.038.025.057l.044-.015-.069-.042Z" fill="#a62020" stroke-width="0"/>
      <path d="M376.503,304.845c-.04-.074-.07-.158-.096-.242.048.195-.141.292.096.242Z" fill="#a62020" stroke-width="0"/>
      <path d="M422.042,303.962c-.038.061-.062.088-.084.094.013.003.027.003.04.003.022-.036.04-.071.043-.097Z" fill="#a62020" stroke-width="0"/>
      <path d="M404.092,303.336l-.216-.042c.06.028.139.042.216.042Z" fill="#a62020" stroke-width="0"/>
      <path d="M386.21,303.741l-.047.038c.02.005.036-.005.047-.038Z" fill="#a62020" stroke-width="0"/>
      <path d="M403.235,303.333c-.038-.099-.079-.157-.121-.195-.009.022-.019.04-.025.072l.146.122Z" fill="#a62020" stroke-width="0"/>
      <path d="M376.406,304.6v.003s0-.003,0-.003Z" fill="#a62020" stroke-width="0"/>
      <path d="M375.087,305.457c.205-.022.045-.372.058-.588.229-.14.151.252.26.427.138-.12.208-.472.323-.472.017.059.042.078.027.157.121-.312.476-.078.614-.468.018.031.03.06.037.088-.055-.179-.085-.365-.097-.499.091-.018.139-.254.206-.019-.057,0-.049.098-.065.176l.082-.117c.133.332-.115.136-.081.391.172-.137.353-.45.51-.372.075.333-.321.158-.09.432l-.239-.099c.241.508-.14-.019.092.528.305.059.304-.215.608-.155.041-.196-.058-.274-.017-.47.372-.391.436.804.682.315.05-.235.027-.665.273-.469l-.026.391c.287,0,.093-.569.422-.348-.034.156-.207.152-.159.193.23.278.109-.232.257-.249l.072.334c.295-.088.598-.371.926-.472-.007.103-.052.215.039.309.402-.218.905-.064,1.333.089l.123-.31c.036-.001.081.124.049.185.171.093-.012-.186.052-.309.088-.03.138.156.09.249.253-.276.742-.615,1.069-.332l-.049.093c.242.095.198-.625.439-.374l-.036.056c.512.076,1.038-.25,1.461.156.033-.427.512.145.49-.445.312.266.24.378.658.539.109.018.128-.381.255-.453l.03.307.152-.338.127.359.118-.09c-.051-.014-.117-.129-.117-.218.183-.156.492.173.509.33l.438-.3c0,.125-.074.174-.128.258.22-.335.07.32.272.013-.036-.067.002-.184.002-.247.127.178.382.161.565.069l-.02.214c.345.03.711-.153,1.094-.177-.144-.089-.139-.459-.029-.502l.068.322c.058-.206-.126-.114.006-.371.146.027.122.363.047.474l.166-.125c.017.096-.02.15-.022.275.057-.207.322.305.401-.053l.016.096c.382-.024.548-.152.859-.184-.012-.281.114-.226.194-.458.235.077.503.283.778.243.186-.151.043-.241.121-.413.029.255.304.215.171.407.329-.061.421-.075.83-.307-.051-.102-.105-.145-.083-.233.074-.046.179.097.175.221l-.019.028c.453-.414,1.123.695,1.474.145l-.02.027.377-.294c.181.037-.099.197.04.35.402-.445.665.034,1-.265.294.741.948-.087,1.325.387l-.026-.177c.088-.177.116.099.186.138-.014-.138-.106-.157-.051-.255.786-.232,1.64.21,2.451.363.297.044.154-.922.534-.502l-.102.331c.593-.403,1.223,0,1.807-.343-.035.077-.035.176-.092.175.125.237.457.008.459-.187.091.023.022.177.078.277.124.142.311-.305.377-.066.011.039-.035.078-.057.096.081-.116.377.031.299-.246.22.133.421-.121.596.043.116-.309.376.15.415-.287-.018.452.383.366.524.154-.048.137.12.142.064.331.159-.006.305-.089.28-.322.286.541.594-.426.749.269.475-.234.915-.391,1.342-.488-.025.451-.47.036-.461.51.405-.178.647-.561,1.044-.445.102.064-.063.195-.1.271.407-.18.776.059,1.141-.174-.002.042-.042.087-.08.12.071-.012.162.072.16-.134l-.07.053c-.104-.301.299-.612.317-.769-.138.583.35.16.136.895.048-.037.109-.132.103-.269.068.042.087.123.012.276.256-.103.174-.324.403-.312-.004.099-.052.136-.079.252.122-.189.246-.379.437-.289-.014.059.006.138-.052.135.333-.019.587-.496.945-.297-.125.427.118.146.122.521l.201-.102-.071-.185c.171.015.335-.25.478-.12l-.135.147.325-.055-.176-.15c.183-.184.003-.473.227-.358-.048.036.172.013.252.237h0c.091-.114.184-.234.307-.136.027.121-.047.411-.029.491.099-.308.407-.067.53-.394-.039.076-.051.272-.042.313l.083-.25c.076.085.085.125.064.28.237.058-.051-.477.222-.259-.023.019-.015.058-.063.094.28.121.561-.136.817.006.056.38-.234.078-.164.4.381-.044.809-.4,1.169-.288l-.066-.046c.084-.526.256.279.457.041-.048.036-.078.29-.062.232.245.101.52-.097.912-.239l-.056.133c.139.131.384.095.539.167.057-.133.147-.103.105-.305.434.813.969-.341,1.356.338-.052-.003-.134.109-.092.113l.381-.096c-.011-.233-.037-.143-.101-.329.058-.133.172-.23.264-.223-.18.139-.028.37.033.504-.006-.072.025-.147.024-.22.161.425.07-.461.313-.164l-.024.12c.104-.054.209-.207.314-.163.022.27-.116.116-.141.335.151-.003.34-.481.453-.205-.07.069-.162.063-.232.132.121.324.145.246.251.305l-.01-.008.237.164-.056-.091c.251-.677.386-.092.687-.515-.293.4-.069.243-.124.542.052.091.134.196.096.277.147-.229.158.216.368-.115-.007.097.117.029.052.267.153-.052-.005-.173.025-.292.291-.29.433.487.837.122.311-.107.463-.404.783-.459.028.18-.196.304-.196.304.079.19.184.194.348.154-.06.065-.065.143-.079.258.098.021.225-.292.276-.096-.074.084-.179.22-.27.299.136-.027.328-.133.48-.136-.068.16-.198.173-.291.252.146-.001.355.05.555-.128l-.012-.134c.049.024-.12.2-.176.218-.216.109-.082-.168-.037-.256h.11c.238-.535-.371-.134-.505-.228l.26-.337c-.115.072-.226.147-.331.223.009-.116.073-.343.191-.355-.051-.253-.177.085-.206-.177,0-.038.013-.055.032-.065l-.181.061c.057-.072.079-.285.144-.194-.178-.323-.504.155-.505-.172l.029-.018c-.39.036-.12.279-.462.562v-.775s-.102.29-.102.29c-.034-.018-.1-.055-.062-.172-.177.177-.004.135-.121.312-.121-.311-.493.044-.457-.442-.097.22.139.201-.07.334.022-.525-.226.056-.352-.199.082-.262.218-.101.086-.36-.152.44-.303-.137-.451-.063-.042.36-.309.121-.544.225.025-.121-.404-.232-.601-.38l.011-.06c-.071.363-.279.277-.442.34.024-.219.059-.303.152-.394l-.147-.01c-.044.115-.095.173-.194.207l.059-.271c-.197,0-.42.291-.657.088-.033.254.145.727-.133.876,0-.139.009-.376.083-.427-.024.016-.09.108-.131.046l.124-.224c-.107-.111-.075.189-.164.16.017-.197-.057-.146-.032-.301.025-.017.074.088.115.013-.101-.043-.217-.17-.247-.323,0,.113-.02.265-.097.285-.197-.001-.05-.242-.156-.353-.057.133-.172-.019-.197.276-.057-.006-.058-.144-.074-.226-.111.123-.477.007-.384.327l.025.022-.017.012h0s0,0,0,0c-.352.272-.678-.211-1.016-.106l.007-.099c-.204.1-.442.039-.596.242-.058-.004-.126-.189-.094-.305-.155.064-.178.174-.386-.002.161-.162-.043-.156.163-.116-.19-.098-.226-.258-.451-.002.086-.248-.129-.328-.227-.257l.127.189c-.107.03-.197.003-.289-.023l.069-.33c-.38-.424-.76.652-1.03-.039-.118.227.21.174.101.441-.182-.054-.35-.54-.408-.544-.244-.196-.259.474-.517.335.028.12.045.438-.157.54-.182-.053-.204-.508-.083-.598.045-.008.064.031.061.071.062-.04.142-.087.075-.219l-.029.117c-.086-.125-.341-.125-.273-.317-.145.106-.068.191.032.258-.229-.183-.37-.024-.609-.15.036.066.066.208.028.205-.352-.159-.167.22-.411.263-.13-.185.066-.43-.184-.287-.144-.127-.02-.316.043-.41-.231.221-.41-.164-.536-.211l.121-.092c-.072.055-.13.051-.188.048l.059.239c-.067-.044-.126-.046-.121-.145-.076.153.04.396-.107.604-.088-.124-.283.12-.304-.196.285.117-.021-.317.225-.36-.048.036-.106.033-.174-.011-.009-.036.012-.065.031-.082-.267-.291-.139.352-.424.335.042-.176-.056-.339-.104-.302.115.007.046.298-.064.43-.179-.144-.202.096-.298.077l.108.069c-.042.176-.133.15-.262.202-.007-.139.119-.091.075-.154-.15.308-.311-.335-.515-.129-.089-.122,0-.334-.079-.417-.228.226-.235-.248-.473-.062.062.24.075.182-.095.411l.387-.161-.254.342c.115.006.247-.145.316-.104-.122.192-.108.133-.058.332-.149-.361-.318.203-.495-.042l.018-.59c-.27-.268-.495.294-.849.139l.113.105c-.052.234-.221.029-.338.122.014-.197-.057-.27-.105-.394.004.147-.262-.018-.3.375l-.156-.263c-.287-.111-.336.554-.612.486.086-.214-.039-.355.149-.507-.093-.003-.176-.039-.178.098-.053-.124-.259.265-.342.077-.04.087-.054.293-.158.277-.011-.04.001-.097.001-.097-.001.097-.163.132-.074.351-.281-.617-.795.042-1.041-.488-.202.065-.445.128-.628.142.012-.059,0-.098.035-.078-.253-.185-.154.566-.442.36-.148-.32.152-.172.06-.293-.042-.651-.347.089-.542-.287l.047-.039c-.15-.219-.36.25-.602.207,0,0,.011-.058,0-.098-.163.333-.474.446-.705.541.069-.255.104-.136.057-.393-.104.038.035.414-.171.489-.069-.138-.221-.258-.245-.534l.196-.017c-.105-.355-.254.015-.358-.046l.011-.156c-.301.054-.298.447-.622.422l.035.118c-.169.392-.152-.219-.322.075l-.061-.393c-.115.098-.4.392-.607.472.111-.296.353-.452.501-.63-.116,0-.392.039-.448.236.046-.039.102-.138.15-.078-.135.314-.317.471-.547.471.022-.766-.604-.177-.788-.766-.399.295-.813-.103-1.287-.038.189.588-.138.023-.087.632-.109.044-.151.036-.163-.004l-.348-.351c-.086-.175.1-.139.085-.276-.244-.037-.112-.255-.279-.41.041.217-.072.316-.214.239l.206.274c-.325.339-.314-.501-.642-.164l.1-.197c-.171.121-.648.023-.797.521-.034-.069-.083-.235-.008-.282-.423-.059-.906.565-1.246.282l.024-.151c-.076.048-.121.288-.227.143.002-.062.023-.151-.013-.158-.039.054-.193.273-.301.192l.079-.173c-.419-.172-.603.444-.938.566-.025-.439-.355-.564-.52-.626l.002-.062c-.48-.03-.784.418-1.211.62-.306-.457-.938-.133-1.397-.369.073.075.015.343-.06.392-.11-.081-.261.325-.276-.079l.037.005c-.108-.389-.312-.27-.478-.267l.015.529c-.494-.728-1.105.379-1.399-.286-.093.141-.222.15-.313.291l-.019-.283c-.295-.047-.443-.07-.793.028l.054-.208c-.203,0-.179.835-.362.868l-.095-.415c-.349.042-.741-.291-1.049.126,0-.062-.002-.185.053-.208-.166.006-.668-.219-.548.351-.043-.375-.365,0-.537.185v-.28c-.122.37-.117.468-.329.588-.057-.031-.07-.217.008-.153-.191-.127-.109.276-.338.151l.06-.185c-.183-.003-.159.091-.235.309-.101.124-.35-.03-.405-.277-.007.155-.083.371-.197.312-.025-.093.007-.156.023-.187-.324-.153-.412.375-.651.127-.015-.091-.034-.135-.054-.161.241-.021.436-.029.42-.007-.029-.255-.229-.277-.115-.648-.134.211-.352.66-.555.562-.012-.024-.024-.047-.035-.085l.016-.031c-.047-.02-.083.008-.115.055-.065-.035-.107-.061-.166-.058-.048-.208-.236-.088-.334-.086.042.278-.09.248.056.465-.018-.018.014-.036.077-.055.014-.01.03-.016.038-.034l-.004.025c.063-.012.145-.029.238-.047-.059.151-.125.279-.25.137-.032.185-.065.375-.08.466-.179-.374-.46-.554-.525-.79-.276.189-.683.193-.801.74-.075.078-.115-.137-.157-.216.042-.059.1-.059.117-.137-.15.157-.489.118-.481.489-.232-.137.074-.352-.208-.254l.024-.117c-.65-.509-.8,1.056-1.534.39.05.04.075.059.093.119-.767-.228-1.435.528-2.222.108-.218-.076-.204.161-.3.356l-.089-.292-.157.375c-.08.091-.17.064-.265-.002l.369.715c.239.04.336.411.352.064l-.058-.196c.073.014.29-.124.241.11.011-.034.066-.207.078-.093l-.034.154c.078-.075.176-.135.29-.176.051.098-.055.22-.136.34-.056.085-.086.131-.16.242.008-.01.108-.092.221-.13.11-.044.247-.058.289-.09-.007-.025.058-.115.187-.2.043.015.079.038.122.063.22-.079.456-.126.654-.216.191-.083.37-.263.306-.656-.172-.085-.347-.135-.513-.158.018-.085.031-.173.04-.263.102.079.202.16.293.262.003-.323-.259-.288-.445-.262.042-.117.035-.224-.022-.312-.207.054-.394.128-.558.227.011-.19.308-.271.066-.467-.241.146.034.433-.277.487-.113-.248-.053-.407-.292-.26-.02-.122.034-.195.137-.232-.223.101-.579.036-.651.303-.261-.251-.641.268-.815-.121-.032.125-.17.482-.274.65l-1.56,2.545,2.352-1.012.017-.007c-.003.023-.006.044-.008.063l-.167,1.323-.675-2.951c-.024-.107-.066-.14-.127-.123l-.789.213,1.785,1.715c.095.092.369-.118.397.303.063-.489.455-.28.654-.576-.008.039-.023.119-.047.098.14.019.201.155.3.231-.041-.39.156-.51.234-.766.22.349-.033.47.072.822-.055-.313.24-.356.146-.609.16.213.125.096.237.408-.048-.488.105-.1.167-.413.217.212.112.447.291.27.116.134-.037.332-.037.332ZM379.753,303.996v.006c-.04.011-.074.021-.096.027.02-.007.048-.016.096-.033ZM380.155,303.945c-.05-.005-.112,0-.176.01-.025-.095-.022-.196.02-.195-.015.067.087.112.156.186ZM379.071,302.11c.06-.047.088.005.103.061-.03.008-.064.022-.109.047l-.003.035c0-.054,0-.105.009-.143Z" fill="#a62020" stroke-width="0"/>
      <path d="M378.999,302.49c-.009.007-.012.02-.024.023.017.022.033.041.046.058l.012-.09-.034.008Z" fill="#a62020" stroke-width="0"/>
      <path d="M415.967,301.968l-.008-.007c.006.011.012.023.015.041-.003-.014-.005-.023-.007-.034Z" fill="#a62020" stroke-width="0"/>
      <polygon points="385.773 303.918 385.766 303.847 385.736 303.912 385.773 303.918" fill="#a62020" stroke-width="0"/>
      <path d="M418.129,303.102c.002.025.009.051.023.074,0-.018-.01-.045-.023-.074Z" fill="#a62020" stroke-width="0"/>
      <path d="M419.086,303.241l.126.111c-.052-.062-.093-.093-.126-.111Z" fill="#a62020" stroke-width="0"/>
      <path d="M419.793,303.45c.015-.048.022-.084.028-.118v-.002s-.028.12-.028.12Z" fill="#a62020" stroke-width="0"/>
      <path d="M408.031,303.077c-.01.001-.02.005-.029.012-.069.052-.022.032.029-.012Z" fill="#a62020" stroke-width="0"/>
      <path d="M411.564,302.556c-.04.049-.079.097-.119.127.061.025.11.033.119-.127Z" fill="#a62020" stroke-width="0"/>
      <polygon points="404.116 303.341 404.117 303.336 404.092 303.336 404.116 303.341" fill="#a62020" stroke-width="0"/>
      <path d="M411.281,302.67c.06.059.113.05.163.013-.05-.021-.109-.053-.163-.013Z" fill="#a62020" stroke-width="0"/>
      <path d="M422.401,304.39l.015.025c.011-.015.021-.026.03-.034l-.045.009Z" fill="#a62020" stroke-width="0"/>
      <path d="M422.445,304.381l.043-.007c-.011-.009-.021-.015-.043.007Z" fill="#a62020" stroke-width="0"/>
      <path d="M422.582,304.359l-.094.015c.017.015.032.038.094-.015Z" fill="#a62020" stroke-width="0"/>
      <path d="M421.773,303.9l-.048.091c.013-.018.028-.047.048-.091Z" fill="#a62020" stroke-width="0"/>
      <path d="M421.523,303.837c.053.041.069.254.165.226l.038-.072c-.088.126-.085-.298-.203-.154Z" fill="#a62020" stroke-width="0"/>
      <path d="M420.646,302.327l.243.127c-.024-.116-.058-.272.067-.273-.273-.382.022.248-.311.146Z" fill="#a62020" stroke-width="0"/>
      <path d="M419.865,302.059c.145-.034.016-.157.03-.217-.1.089-.123.112-.03.217Z" fill="#a62020" stroke-width="0"/>
      <path d="M414.224,301.632l.029-.254c-.106.03-.007.099-.029.254Z" fill="#a62020" stroke-width="0"/>
      <polygon points="413.074 302.887 413.166 303.05 413.227 302.819 413.074 302.887" fill="#a62020" stroke-width="0"/>
      <polygon points="412.536 301.036 412.584 301.002 412.405 301.086 412.536 301.036" fill="#a62020" stroke-width="0"/>
      <path d="M403.037,300.868l.031.315c.071-.056.087-.41-.031-.315Z" fill="#a62020" stroke-width="0"/>
      <path d="M398.942,301.214c-.047-.157-.165-.257-.233-.101.092.021.187.142.233.101Z" fill="#a62020" stroke-width="0"/>
      <polygon points="386.64 301.307 386.714 301.195 386.566 301.296 386.64 301.307" fill="#a62020" stroke-width="0"/>
    </g>
    <path d="M325.223,353c1.373,0,2.553.347,3.54,1.04s1.473,1.54,1.46,2.54v10c0,.96-.467,1.78-1.4,2.46s-2.067,1.047-3.4,1.1l2.38,2.24c.107.12.133.253.08.4s-.167.22-.34.22h-11.78c-.16,0-.273-.073-.34-.22s-.033-.28.1-.4l2.38-2.24c-1.347-.04-2.487-.407-3.42-1.1-.933-.693-1.4-1.513-1.4-2.46v-10c0-1,.487-1.847,1.46-2.54.973-.693,2.153-1.04,3.54-1.04h7.14ZM316.303,367.64c.493,0,.913-.173,1.26-.52.347-.347.52-.767.52-1.26s-.173-.913-.52-1.26c-.347-.347-.767-.52-1.26-.52s-.913.173-1.26.52c-.347.347-.527.767-.54,1.26s.167.913.54,1.26c.373.347.793.52,1.26.52ZM320.943,361.58v-5.72h-6.08v5.72h6.08ZM327.003,367.64c.493,0,.92-.173,1.28-.52.36-.347.533-.767.52-1.26s-.187-.913-.52-1.26c-.333-.347-.76-.52-1.28-.52s-.94.173-1.26.52c-.32.347-.493.767-.52,1.26s.147.913.52,1.26c.373.347.793.52,1.26.52ZM328.803,361.58v-5.72h-6.44v5.72h6.44Z" fill="#7f7e7e" stroke-width="0"/>
    <path d="M248.223,492c1.373,0,2.553.347,3.54,1.04s1.473,1.54,1.46,2.54v10c0,.96-.467,1.78-1.4,2.46s-2.067,1.047-3.4,1.1l2.38,2.24c.107.12.133.253.08.4s-.167.22-.34.22h-11.78c-.16,0-.273-.073-.34-.22s-.033-.28.1-.4l2.38-2.24c-1.347-.04-2.487-.407-3.42-1.1-.933-.693-1.4-1.513-1.4-2.46v-10c0-1,.487-1.847,1.46-2.54.973-.693,2.153-1.04,3.54-1.04h7.14ZM239.303,506.64c.493,0,.913-.173,1.26-.52.347-.347.52-.767.52-1.26s-.173-.913-.52-1.26c-.347-.347-.767-.52-1.26-.52s-.913.173-1.26.52c-.347.347-.527.767-.54,1.26s.167.913.54,1.26c.373.347.793.52,1.26.52ZM243.943,500.58v-5.72h-6.08v5.72h6.08ZM250.003,506.64c.493,0,.92-.173,1.28-.52.36-.347.533-.767.52-1.26s-.187-.913-.52-1.26c-.333-.347-.76-.52-1.28-.52s-.94.173-1.26.52c-.32.347-.493.767-.52,1.26s.147.913.52,1.26c.373.347.793.52,1.26.52ZM251.803,500.58v-5.72h-6.44v5.72h6.44Z" fill="#7f7e7e" stroke-width="0"/>
    <path d="M198.223,582c1.373,0,2.553.347,3.54,1.04s1.473,1.54,1.46,2.54v10c0,.96-.467,1.78-1.4,2.46s-2.067,1.047-3.4,1.1l2.38,2.24c.107.12.133.253.08.4s-.167.22-.34.22h-11.78c-.16,0-.273-.073-.34-.22s-.033-.28.1-.4l2.38-2.24c-1.347-.04-2.487-.407-3.42-1.1-.933-.693-1.4-1.513-1.4-2.46v-10c0-1,.487-1.847,1.46-2.54.973-.693,2.153-1.04,3.54-1.04h7.14ZM189.303,596.64c.493,0,.913-.173,1.26-.52.347-.347.52-.767.52-1.26s-.173-.913-.52-1.26c-.347-.347-.767-.52-1.26-.52s-.913.173-1.26.52c-.347.347-.527.767-.54,1.26s.167.913.54,1.26c.373.347.793.52,1.26.52ZM193.943,590.58v-5.72h-6.08v5.72h6.08ZM200.003,596.64c.493,0,.92-.173,1.28-.52.36-.347.533-.767.52-1.26s-.187-.913-.52-1.26c-.333-.347-.76-.52-1.28-.52s-.94.173-1.26.52c-.32.347-.493.767-.52,1.26s.147.913.52,1.26c.373.347.793.52,1.26.52ZM201.803,590.58v-5.72h-6.44v5.72h6.44Z" fill="#7f7e7e" stroke-width="0"/>
    <path d="M449.223,83c1.373,0,2.553.347,3.54,1.04s1.473,1.54,1.46,2.54v10c0,.96-.467,1.78-1.4,2.46s-2.067,1.047-3.4,1.1l2.38,2.24c.107.12.133.253.08.4s-.167.22-.34.22h-11.78c-.16,0-.273-.073-.34-.22s-.033-.28.1-.4l2.38-2.24c-1.347-.04-2.487-.407-3.42-1.1-.933-.693-1.4-1.513-1.4-2.46v-10c0-1,.487-1.847,1.46-2.54.973-.693,2.153-1.04,3.54-1.04h7.14ZM440.303,97.64c.493,0,.913-.173,1.26-.52.347-.347.52-.767.52-1.26s-.173-.913-.52-1.26c-.347-.347-.767-.52-1.26-.52s-.913.173-1.26.52c-.347.347-.527.767-.54,1.26s.167.913.54,1.26c.373.347.793.52,1.26.52ZM444.943,91.58v-5.72h-6.08v5.72h6.08ZM451.003,97.64c.493,0,.92-.173,1.28-.52.36-.347.533-.767.52-1.26s-.187-.913-.52-1.26c-.333-.347-.76-.52-1.28-.52s-.94.173-1.26.52c-.32.347-.493.767-.52,1.26s.147.913.52,1.26c.373.347.793.52,1.26.52ZM452.803,91.58v-5.72h-6.44v5.72h6.44Z" fill="#7f7e7e" stroke-width="0"/>
    <path d="M394.223,189c1.373,0,2.553.347,3.54,1.04s1.473,1.54,1.46,2.54v10c0,.96-.467,1.78-1.4,2.46s-2.067,1.047-3.4,1.1l2.38,2.24c.107.12.133.253.08.4s-.167.22-.34.22h-11.78c-.16,0-.273-.073-.34-.22s-.033-.28.1-.4l2.38-2.24c-1.347-.04-2.487-.407-3.42-1.1-.933-.693-1.4-1.513-1.4-2.46v-10c0-1,.487-1.847,1.46-2.54.973-.693,2.153-1.04,3.54-1.04h7.14ZM385.303,203.64c.493,0,.913-.173,1.26-.52.347-.347.52-.767.52-1.26s-.173-.913-.52-1.26c-.347-.347-.767-.52-1.26-.52s-.913.173-1.26.52c-.347.347-.527.767-.54,1.26s.167.913.54,1.26c.373.347.793.52,1.26.52ZM389.943,197.58v-5.72h-6.08v5.72h6.08ZM396.003,203.64c.493,0,.92-.173,1.28-.52.36-.347.533-.767.52-1.26s-.187-.913-.52-1.26c-.333-.347-.76-.52-1.28-.52s-.94.173-1.26.52c-.32.347-.493.767-.52,1.26s.147.913.52,1.26c.373.347.793.52,1.26.52ZM397.803,197.58v-5.72h-6.44v5.72h6.44Z" fill="#7f7e7e" stroke-width="0"/>
    <path d="M286.223,423c1.373,0,2.553.347,3.54,1.04s1.473,1.54,1.46,2.54v10c0,.96-.467,1.78-1.4,2.46s-2.067,1.047-3.4,1.1l2.38,2.24c.107.12.133.253.08.4s-.167.22-.34.22h-11.78c-.16,0-.273-.073-.34-.22s-.033-.28.1-.4l2.38-2.24c-1.347-.04-2.487-.407-3.42-1.1-.933-.693-1.4-1.513-1.4-2.46v-10c0-1,.487-1.847,1.46-2.54.973-.693,2.153-1.04,3.54-1.04h7.14ZM277.303,437.64c.493,0,.913-.173,1.26-.52.347-.347.52-.767.52-1.26s-.173-.913-.52-1.26c-.347-.347-.767-.52-1.26-.52s-.913.173-1.26.52c-.347.347-.527.767-.54,1.26s.167.913.54,1.26c.373.347.793.52,1.26.52ZM281.943,431.58v-5.72h-6.08v5.72h6.08ZM288.003,437.64c.493,0,.92-.173,1.28-.52.36-.347.533-.767.52-1.26s-.187-.913-.52-1.26c-.333-.347-.76-.52-1.28-.52s-.94.173-1.26.52c-.32.347-.493.767-.52,1.26s.147.913.52,1.26c.373.347.793.52,1.26.52ZM289.803,431.58v-5.72h-6.44v5.72h6.44Z" fill="#7f7e7e" stroke-width="0"/>
    <image width="3954" height="3471" transform="translate(-112.38 -160.92) scale(.24)" xlink:href="layers-Artboard_1-layer2-1.png"/>
    <g>
      <polygon points="288.737 275.896 288.817 275.802 288.559 275.8 288.737 275.896" fill="#ce3d42" stroke-width="0"/>
      <path d="M289.607,275.392l-.123-.139c-.726.171-.525.034-1.026.32.123.066.397.217.684.165-.038-.056-.328-.112-.246-.207.215.014.201.11.481.126.212-.165-.189-.07-.104-.236l.334-.028Z" fill="#ce3d42" stroke-width="0"/>
      <path d="M288.856,275.299c.127-.002.255-.002.358-.017-.128,0-.292-.052-.358.017Z" fill="#ce3d42" stroke-width="0"/>
      <path d="M288.77,275.219c.017-.096.271-.032.31-.046l-.486-.046.176.092Z" fill="#ce3d42" stroke-width="0"/>
      <path d="M288.75,274.832c-.015-.013-.031-.025-.051-.037-.073.026-.007.028.051.037Z" fill="#ce3d42" stroke-width="0"/>
      <path d="M288.667,274.652c-.158.062-.055.094.032.143.01-.003.015-.005.03-.01.13-.073.474-.071.398.029.088.081-.246.117-.016.166l.257-.145c-.062-.139-.559-.149-.7-.183Z" fill="#ce3d42" stroke-width="0"/>
      <path d="M288.75,274.832c.015.014.026.03.028.047.053-.03.018-.04-.028-.047Z" fill="#ce3d42" stroke-width="0"/>
      <polygon points="288.737 275.029 288.814 275.068 288.955 275.038 288.737 275.029" fill="#ce3d42" stroke-width="0"/>
      <path d="M288.592,274.343c.462-.052-.012.231.346.201-.036-.121.28-.275.537-.288l-.166-.118c-.181-.018-.513.099-.717.205Z" fill="#ce3d42" stroke-width="0"/>
      <path d="M289.7,273.875c-.04-.003-.068-.009-.083-.019.021.012.046.021.083.019Z" fill="#ce3d42" stroke-width="0"/>
      <path d="M288.783,273.315l.524.233c-.152-.002-.293.037-.36-.026-.031.154.262.118.237.246-.418.114-.067-.204-.434-.064.027.08.067.2.439.203l-.268.184.46-.126c.124-.079-.385-.045-.067-.136.197-.053.244-.005.298.026-.11-.07.325-.308.226-.477-.086-.18-.808.011-1.056-.063Z" fill="#ce3d42" stroke-width="0"/>
      <polygon points="289.291 273.197 289.468 273.138 289.226 273.204 289.291 273.197" fill="#ce3d42" stroke-width="0"/>
      <path d="M288.613,272.974l.325.104c-.036.027-.131.057-.213.088.106-.03.297-.023.383-.049.401-.168-.175-.18-.27-.252.131-.281.226-.04.598-.223.006.071-.093.096-.1.196.436-.255-.041-.346-.18-.41-.035.038-.162.076-.112.119l-.16-.065c-.306.18-.376.284-.27.492Z" fill="#ce3d42" stroke-width="0"/>
      <path d="M288.679,273.27c-.044-.055-.018-.085.041-.103-.109.04-.187.078-.041.103Z" fill="#ce3d42" stroke-width="0"/>
      <path d="M289.132,272.379c-.024.017-.01.032.024.048.014-.016.015-.032-.024-.048Z" fill="#ce3d42" stroke-width="0"/>
      <path d="M288.661,272.594l.016-.127-.186.094c.025.011.07.06.17.033Z" fill="#ce3d42" stroke-width="0"/>
      <path d="M287.764,267.999c-.153.083-.213.159-.144.231-.216.085-.225-.044-.369-.04-.085.174-.248.112-.439.234.034.131.334.062.337.22-.062.02-.155.064-.222.114.208.095.517.288.399.52-.019.184.13.254.29.386.099.593.527,1.104.501,1.78l.46-.041c-.206.093.044.148-.243.211.045-.049-.009-.069-.027-.107-.344.241.128.34.034.537.073-.039.445-.167.526-.137-.49.116.061.189-.486.379-.101.195.428-.102.39.085.292-.053.101-.197.309-.283.246-.006-.061.18.239.096.071-.315-.656-.665-.944-1.012l.28-.039c-.253-.153-.366-.479.003-.79-.236.125.03-.355-.528-.125.112-.098.086-.106.108-.197l-.187.045c-.035-.106.247-.189.184-.303-.212.168-.318.108-.531.148.22-.236.396-.487.57-.698-.074.041-.159.086-.247.169.054-.117-.171-.012-.262,0-.044-.074.27-.19.428-.248.034-.187-.583-.01-.429-.199l-.231.14c-.122-.121.101-.363-.056-.489.298-.225.351.007.522.016.057-.064.046-.144.144-.215-.203.003-.488-.013-.686-.028.424-.09.309-.29.308-.358Z" fill="#ce3d42" stroke-width="0"/>
      <path d="M288.142,268.384c.062-.004.114-.007.156-.01-.028-.007-.057-.013-.052-.044-.044.016-.077.035-.103.053Z" fill="#ce3d42" stroke-width="0"/>
      <path d="M287.764,267.999l.038-.021c-.03-.006-.037.003-.038.021Z" fill="#ce3d42" stroke-width="0"/>
      <path d="M287.312,269.307c.007-.01.008-.02.013-.03l-.002-.03-.011.06Z" fill="#ce3d42" stroke-width="0"/>
      <path d="M288.486,268.977c-.073.068-.143.148-.212.234.106-.059.188-.104.212-.234Z" fill="#ce3d42" stroke-width="0"/>
      <path d="M288.594,270.124c.055.017.125-.028.215-.034-.013-.07-.103-.064-.215.034Z" fill="#ce3d42" stroke-width="0"/>
      <polygon points="288.123 268.174 287.991 268.08 287.905 268.064 288.123 268.174" fill="#ce3d42" stroke-width="0"/>
      <path d="M285.601,266.303c-.307.114.03.301.043.454.319.216.71-.162.841-.011-.203.084-.408.163-.619.235.177.239.2.58.816.518-.063.053-.131.137-.243.121.095.138.871-.34.777-.037-.458-.011-.317.233-.706.358l-.055-.009c.099.107.376.182.392.278.154-.068.352-.253.424-.145.009-.061.19-.123.344-.19-.225-.042-.154-.156-.39-.132.166-.163.087.014.249-.148l-.229-.008c.011-.094.233-.023.22-.154-.121.043-.29.016-.306-.083l.079-.009c-.11-.027-.061-.168-.369.028l.282-.241-.213.127c-.006-.22.482-.565.086-.652-.036.09-.181.103-.237.096-.101.177.226.03.304.105-.212.129-.554.116-.627.294.205-.242-.17-.242.384-.517.01-.06-.302.001-.2-.109l.097-.016c-.441.052.175-.065-.317-.083l-.076.052c-.184.013-.207-.015-.264-.054.077.003.077.002.161-.011-.339-.001-.487-.155-.609-.187-.018.065.322.161.44.217-.213-.026-.496-.015-.48-.087Z" fill="#ce3d42" stroke-width="0"/>
      <path d="M287.39,267.326l-.151.016c.031.009.078.008.151-.016Z" fill="#ce3d42" stroke-width="0"/>
      <path d="M285.94,265.88c.062-.022.373.134.541.161-.339-.163-.575-.151-1.062-.366.234.049-.279-.203-.327-.255.312.157.885.369,1.01.417-.185-.093.091-.007.092-.023-.341-.097-.289-.189-.667-.305-.336-.155-.694-.409-.549-.377.018.006.038.013.062.021.102.054.164.09.203.116.07.045.063.056.083.08.365.191.35.16.445.192.047.016.123.048.288.133-.716-.417-.158-.421-1.243-1.066-.257-.12-.09.041-.117.074.408.118.526.342.716.461-.241-.101-.006.113-.381-.121-.101-.083-.194-.166-.281-.25-.092-.014-.183-.023-.276-.029-.083-.002-.219-.025-.21.026.153.287.486.695.782,1.03l-.097-.181c.302.11.367.192.534.281.196.027.396.061.601.104-.029.017.082.068-.146.011.29.101.434.112.645.153.132.063-.092.039.311.123.477.058-.451-.138-.034-.088-.302-.097-.61-.204-.924-.319Z" fill="#ce3d42" stroke-width="0"/>
      <polygon points="286.442 266.216 286.124 266.142 286.3 266.209 286.442 266.216" fill="#ce3d42" stroke-width="0"/>
      <path d="M285.063,265.933c.138.024.22.067.355.088.037-.074-.157-.111-.355-.088Z" fill="#ce3d42" stroke-width="0"/>
      <path d="M286.157,265.681c-.022-.027-.041-.053-.057-.08l-.196-.081c.168.096.221.138.254.161Z" fill="#ce3d42" stroke-width="0"/>
      <path d="M285.476,264.485c-.226.06-.05.27-.623.067.271.29.789.525,1.102.793.162.059-.499-.43-.482-.529.339.245.114-.066.305-.015-.118-.102-.24-.219-.302-.315Z" fill="#ce3d42" stroke-width="0"/>
      <path d="M286.869,265.429c.052.001.037-.205.134-.082.047.165.043.228-.005.184.164.372.035-.06.164.187-.014-.041-.052-.103-.061-.185.151.084.012-.31.272-.102.039-.105.08-.104.066-.354.173.312.09.312.294.584-.011-.146-.084-.48-.09-.792.291.432.286-.071.472.257-.02.016-.043.098-.091.055.031.438.148-.081.249.004l-.004.374c.09-.059.246-.307.363-.035l-.025.188c.23-.289.504-.156.703-.295l.105.233c.276-.283-.272-.133-.068-.69.026.69.144-.223.3.052.071.275-.16.142-.081.456.038-.353.084-.101.169-.202-.022.333.173.046.117.422l.303-.612c.044.19.129.16.193.113-.158-.008.055-.495-.121-.653-.265.151-.701.264-1.027.086-.036.458-.21-.006-.261.367-.014-.145-.027-.273-.041-.418-.21.1.05.251,0,.418-.092.061-.167-.213-.159-.379-.151-.022-.017.125-.091.373l-.102-.502c-.235.081-.507.203-.786.281-.281.077-.546.095-.909-.035l.132.309c-.146-.081-.189.097-.206.211-.029.114-.032.164-.371-.16.042.088.088.177.14.265-.08-.151-.41-.455-.5-.661.003.107-.179-.004-.177.093l.263.136c.132.259-.083.104-.347-.113.12.303.644.514.865.768-.166-.284.02-.15.173.029.165.178.308.4.281.279-.026-.183-.144-.288-.234-.452Z" fill="#ce3d42" stroke-width="0"/>
      <path d="M286.03,264.608c-.003.024.004.054.015.083.001-.019-.003-.045-.015-.083Z" fill="#ce3d42" stroke-width="0"/>
      <path d="M290.347,265.189c.019,0,.041-.003.071-.017.026-.079-.014-.024-.071.017Z" fill="#ce3d42" stroke-width="0"/>
      <path d="M285.778,264.8s.002.002.006.006l-.003-.006h-.003Z" fill="#ce3d42" stroke-width="0"/>
      <polygon points="286.448 265.542 286.499 265.548 286.346 265.411 286.448 265.542" fill="#ce3d42" stroke-width="0"/>
      <path d="M291.042,265.603l.007-.165c-.008.052-.013.104-.007.165Z" fill="#ce3d42" stroke-width="0"/>
      <path d="M292.94,265.801l-.04-.012c.011.026.026.023.04.012Z" fill="#ce3d42" stroke-width="0"/>
      <path d="M297.531,265.956c.139-.084.318-.157.451-.405l-.035.163c.078-.069.336-.296.243-.611l-.057.138c-.197.216-.073-.29-.181-.416-.163.053-.341.659-.451.494-.061.009-.027-.155.008-.275-.127-.065-.247.402-.347.45.137-1.246-.453.278-.543-.535-.138.085-.291-.045-.481.18.123-.3-.147-.045-.069-.392-.131.716-.422-.375-.555.532-.187-.279-.015.06-.24-.181.011-.102.053-.098.072-.114-.079-.199-.193.372-.231-.054-.193-.089-.06.244-.202.476-.196-.129-.125-.246-.203-.633-.061.434-.165.212-.287.428.023.023.156.122.048.279-.233-.092-.218.268-.451.365-.071-.491.224.006.061-.391.162-.211.267-.179.377-.522-.19-.043-.431.01-.657.195-.111-.073.078-.223-.01-.273-.192-.228-.358.466-.507.241l.053-.246c-.126.323-.362-.103-.568.07.016.126.027.211-.004.292.042-.625-.287.309-.45-.142-.008.396-.203.609-.32.643-.035-.11-.018-.276-.012-.381.177.247.207-.419.369-.595-.138.198-.335-.027-.459.255l.058-.309c-.174-.054-.187.697-.355.392l.028-.227c-.368.016-.791-.41-1.1.099-.03.187.106.632.109.779.178-.159.289-.489.429-.646l-.014.357c.039-.244.205-.382.123-.578.116-.178.07.318.204.119-.025.373-.101.41-.115.721l.115-.179c-.04.143.06.128.021.273.219-.444.271.187.487-.008l-.112-.072c.011-.207.076-.184.129-.242.042.296.077.258.176.392.1-.159.172-.529.296-.519-.049.393.193.227.196.56.051-.392.248-.127.28-.352.072-.076.16-.027.144.184-.01.01-.033.048-.054.064l.065.018c-.009.045-.01.079-.018.086.058.014.079-.272.14-.072-.008.103-.049.099-.085.138.15.079.318-.575.421-.209.04-.183.223-.186.217-.607.037.152-.008.482.13.433.105-.345.137.143.256-.075-.166.358-.01.103-.157.445.077.154.252-.307.403-.228.002.085.004.19.006.275.069-.118.164-.4.192-.102l.017-.251c.094.139.251.071.337.358l.182-.458c.126.521.413.096.607-.317.064.029.153.126.14.231-.019.034-.057.101-.092.164.095.027.18.313.282-.073.114-.108.04.28.106.353.271-.526.535.483.709-.353-.082-.014-.216-.203-.379-.187.055-.096.044-.266.105-.277.164-.017.204.303.381.185l-.092.534c.191.584.618-.654.717.145Z" fill="#ce3d42" stroke-width="0"/>
      <path d="M295.527,265.68l.082.285.015-.233c-.04.034-.075.03-.097-.052Z" fill="#ce3d42" stroke-width="0"/>
      <path d="M295.624,265.732c.026-.023.054-.06.079-.102-.024-.007-.05,0-.075.043l-.004.06Z" fill="#ce3d42" stroke-width="0"/>
      <path d="M297.996,265.935c.022.025.064.076.123.024-.022-.069-.085-.101-.123-.024Z" fill="#ce3d42" stroke-width="0"/>
      <polygon points="298.154 265.795 298.11 265.702 298.092 265.763 298.154 265.795" fill="#ce3d42" stroke-width="0"/>
      <path d="M301.605,266.03c.106-.077.219-.146.341-.209-.039.162.301.129.074.33.339-.262.388.285.653-.231-.836-.474-1.656-.865-2.336-.504l.144-.201c-.41.377-.354-.575-.781.252l.119-.444c-.127-.153-.405.598-.474.095l-.017.186c-.041-.008-.043-.093-.084-.102l.002.086c-.141.161-.203.128-.288-.016.017-.145.061-.053.101-.085-.024-.155-.161.135-.244.118-.045-.136.036-.205.055-.265-.284.159-.321-.336-.608.309-.037.121.028.24-.072.283.129.239.305-.006.486-.162l-.041-.009c.229-.633.066.161.305-.087-.096.256-.178.239-.236.377.134.536.381-.325.413.342l-.02.016c.021.067.101-.044.161-.094-.001-.086-.042-.137-.064-.206.06-.051.138-.333.177-.452.005.298.101-.128.165.033-.017.272-.12.231-.179.368l.141-.164c.102,0,.044.309.066.462.121-.189-.022-.153.098-.426.045.347.511.347.778.131-.082.022-.083.279-.164.218.021.067.163-.049.205-.253.184-.151.351.013.453.233l.005-.214c.207-.311.247.323.519.2l-.004-.005c.081-.02.329-.472.446-.306-.145.208-.209.16-.294.396Z" fill="#ce3d42" stroke-width="0"/>
      <path d="M302.699,266.182c-.097.039-.192.082-.282.129.028.111.394-.023.529-.156-.099-.026-.089-.202-.222-.096-.018.04-.094.112-.025.123Z" fill="#ce3d42" stroke-width="0"/>
      <path d="M302.896,268.278c.038.061.155.09.223.137.318-.521.237-1.14.405-1.409.052-.214-.379-.108-.535-.241.077-.07.151-.143.224-.22-.205-.015-.147-.486-.465-.099-.03.033.241-.057.218.075l-.148.075c.048.049.101.097.141.154l-.208.038c-.193.349.663-.084.537.368l-.414.097c-.027.202.099.316-.22.482,0,0,.219.009.14-.027.033-.031.22-.083.343-.059.239.364-.237-.047-.495.158.099.125.137.349.047.534-.086.186-.281.302-.493.215.345.088.385.403.207.469-.18-.099-.155-.216-.233-.325-.101-.009-.232-.096-.236-.039.248.197.443.459.426.658.213.07.322-.168.362-.403.046-.243.024-.468.174-.639Z" fill="#ce3d42" stroke-width="0"/>
      <path d="M303.163,268.526c.017-.051-.006-.084-.044-.111-.036.058-.068.12-.112.168.054-.016.107-.034.156-.057Z" fill="#ce3d42" stroke-width="0"/>
    </g>
  </g>
<style>
#g-layers-Artboard_1-layer2-img rect, #g-layers-Artboard_1-layer2-img circle, #g-layers-Artboard_1-layer2-img path, #g-layers-Artboard_1-layer2-img line, #g-layers-Artboard_1-layer2-img polyline, #g-layers-Artboard_1-layer2-img polygon { vector-effect: non-scaling-stroke; }
</style>
</svg>
